#!OML:ASF F:\VICON\USERDATA\INSTALL\SteveWalk\SteveWalk.ASF
:FULLY-SPECIFIED
:DEGREES
166
root 0.0353944 15.8311 -8.82763 19.098 -3.38913 1.15349
lowerback -17.4882 1.61149 -3.58639
upperback -5.83064 2.76666 -0.950588
thorax 3.4226 1.38151 1.57544
lowerneck -6.68428 -1.2348 1.16332
upperneck 8.61811 -1.79118 0.102215
head 3.99895 -0.84104 -0.271318
rclavicle -1.44756e-014 -9.74045e-015
rhumerus -12.2475 11.4699 -82.4429
rradius 57.1955
rwrist -17.9289
rhand -17.921 -30.3593
rfingers 7.12502
rthumb 8.34661 -60.1744
lclavicle -1.44756e-014 -9.74045e-015
lhumerus -85.8202 29.5959 11.9909
lradius 9.88386
lwrist -63.5152
lhand -7.75711 -13.4065
lfingers 7.12502
lthumb 18.1425 15.7674
rfemur 3.28615 -3.31612 18.8532
rtibia 22.7811
rfoot -14.2777 18.5356
rtoes -9.29956
lfemur -52.7493 1.76911 -22.5055
ltibia 23.7675
lfoot -1.8235 -3.14979
ltoes -17.7755
167
root 0.0363183 15.8272 -8.56015 19.214 -3.12945 1.65637
lowerback -17.4612 1.45366 -4.30789
upperback -6.02847 2.68397 -1.18037
thorax 3.17672 1.35132 1.71717
lowerneck -6.88158 -1.36475 1.08305
upperneck 8.73307 -1.99719 0.472236
head 4.0833 -0.926732 -0.147972
rclavicle 2.01891e-014 -7.7526e-015
rhumerus -13.5727 11.0024 -82.6317
rradius 57.9901
rwrist -17.7776
rhand -18.0383 -30.5755
rfingers 7.12502
rthumb 8.2334 -60.3951
lclavicle 2.01891e-014 -7.7526e-015
lhumerus -86.0408 29.6625 10.892
lradius 9.83728
lwrist -64.3881
lhand -7.69278 -13.2021
lfingers 7.12502
lthumb 18.2044 15.966
rfemur 3.03442 -2.96322 18.4417
rtibia 24.3392
rfoot -11.7769 18.374
rtoes -8.89181
lfemur -53.4054 0.896531 -22.4521
ltibia 25.9699
lfoot -0.857444 -4.07524
ltoes -13.8073
168
root 0.0437665 15.8128 -8.29291 19.1944 -2.72465 1.99981
lowerback -17.3099 1.32895 -4.69061
upperback -6.16638 2.58216 -1.42862
thorax 2.94911 1.30956 1.64262
lowerneck -7.22518 -1.51036 1.02531
upperneck 9.00234 -2.23749 0.894312
head 4.25488 -1.02339 -0.015362
rclavicle 2.19284e-015 -2.34566e-014
rhumerus -14.9463 10.3659 -82.9049
rradius 58.752
rwrist -17.8241
rhand -18.2649 -31.1829
rfingers 7.12502
rthumb 8.01463 -61.011
lclavicle 2.19284e-015 -2.34566e-014
lhumerus -86.1957 29.6826 9.7652
lradius 9.87464
lwrist -65.17
lhand -7.44845 -12.8585
lfingers 7.12502
lthumb 18.4395 16.2875
rfemur 2.7152 -2.82487 18.1805
rtibia 26.3458
rfoot -9.00515 18.4791
rtoes -7.27683
lfemur -53.912 -0.0537887 -22.2692
ltibia 28.277
lfoot -0.357437 -4.32143
ltoes -10.8376
169
root 0.0508743 15.7934 -8.03446 19.1038 -2.13092 2.52392
lowerback -17.5723 1.1299 -5.20682
upperback -5.94465 2.44802 -1.7223
thorax 3.32004 1.23176 1.61085
lowerneck -7.56122 -1.67259 0.835491
upperneck 9.00693 -2.50582 1.54554
head 4.33803 -1.12813 0.217575
rclavicle 1.01504e-014 -6.75868e-015
rhumerus -16.0101 9.58512 -83.0999
rradius 59.3102
rwrist -17.8525
rhand -18.3212 -30.8632
rfingers 7.12502
rthumb 7.96036 -60.6933
lclavicle 1.01504e-014 -6.75868e-015
lhumerus -86.0863 30.3548 8.78137
lradius 9.78039
lwrist -66.1652
lhand -7.58815 -12.6621
lfingers 7.12502
lthumb 18.3051 16.4966
rfemur 2.23658 -2.93147 17.7951
rtibia 28.7029
rfoot -5.71131 18.3891
rtoes -5.80283
lfemur -54.2038 -0.821525 -22.7114
ltibia 30.6378
lfoot -0.681423 -4.47818
ltoes -13.1475
170
root 0.0532661 15.7743 -7.7751 18.8522 -1.55642 3.19754
lowerback -17.0613 0.91822 -5.97292
upperback -6.08791 2.26767 -2.01139
thorax 2.88621 1.16062 1.68289
lowerneck -7.63362 -1.81892 0.581948
upperneck 9.23847 -2.74507 2.17454
head 4.45442 -1.21997 0.458755
rclavicle -9.26212e-015 -5.1684e-015
rhumerus -17.946 8.90853 -83.3555
rradius 59.9146
rwrist -17.6953
rhand -18.2475 -30.2121
rfingers 7.12502
rthumb 8.03148 -60.0395
lclavicle -9.26212e-015 -5.1684e-015
lhumerus -86.1178 30.5063 7.7877
lradius 9.82192
lwrist -67.3153
lhand -7.70511 -12.9152
lfingers 7.12502
lthumb 18.1926 16.2541
rfemur 1.70457 -3.11075 17.2686
rtibia 31.3779
rfoot -2.1823 17.8268
rtoes -6.74769
lfemur -54.199 -1.52384 -23.3968
ltibia 32.9255
lfoot -1.42522 -4.40842
ltoes -12.6098
171
root 0.0482232 15.7641 -7.52146 18.6612 -1.42436 3.50153
lowerback -16.8535 0.818955 -6.58857
upperback -6.10145 2.22347 -2.11557
thorax 2.74058 1.14791 1.90333
lowerneck -7.55373 -1.88968 0.307604
upperneck 9.12698 -2.86618 2.76668
head 4.4168 -1.26128 0.701154
rclavicle 3.07495e-014 3.18055e-015
rhumerus -19.4692 8.51632 -83.5168
rradius 60.2332
rwrist -17.7379
rhand -18.2861 -30.1913
rfingers 7.12502
rthumb 7.99421 -60.0201
lclavicle 3.07495e-014 3.18055e-015
lhumerus -86.4185 30.8716 6.69074
lradius 9.92161
lwrist -68.4992
lhand -7.66481 -12.6851
lfingers 7.12502
lthumb 18.2313 16.4805
rfemur 0.767664 -2.88582 16.9878
rtibia 34.326
rfoot 1.52873 17.0883
rtoes -8.62473
lfemur -54.224 -2.02684 -23.4994
ltibia 34.9969
lfoot -2.15595 -4.4879
ltoes -7.00357
172
root 0.0398221 15.7672 -7.28146 18.6638 -1.65452 3.56151
lowerback -16.3443 0.886061 -7.0554
upperback -6.47016 2.32013 -2.17926
thorax 2.05024 1.23069 2.09109
lowerneck -7.17146 -2.02021 0.139799
upperneck 9.02825 -3.06144 3.21627
head 4.32063 -1.34585 0.874052
rclavicle -1.50082e-014 2.78299e-015
rhumerus -21.302 8.21426 -83.7628
rradius 60.3453
rwrist -17.8591
rhand -18.5414 -30.1313
rfingers 7.12502
rthumb 7.74785 -59.9693
lclavicle -1.50082e-014 2.78299e-015
lhumerus -86.7728 30.7601 5.57188
lradius 9.99175
lwrist -69.7652
lhand -7.75552 -12.5037
lfingers 7.12502
lthumb 18.1441 16.6701
rfemur -0.758465 -2.35013 16.8264
rtibia 37.5052
rfoot 5.25072 16.4859
rtoes -7.91371
lfemur -54.2666 -2.04566 -23.6073
ltibia 36.7284
lfoot -3.07808 -4.92994
ltoes -5.83567
173
root 0.0391401 15.7757 -7.03985 18.6163 -1.88918 3.78129
lowerback -16.0076 0.920647 -7.44605
upperback -6.65465 2.38653 -2.35617
thorax 1.65733 1.28453 2.11887
lowerneck -7.24092 -2.07919 0.0694372
upperneck 9.14916 -3.17725 3.59205
head 4.39175 -1.3843 1.00659
rclavicle 1.48095e-014 9.54166e-015
rhumerus -22.8552 7.89463 -84.1523
rradius 60.3097
rwrist -17.9525
rhand -18.7234 -30.6242
rfingers 7.12502
rthumb 7.57216 -60.4686
lclavicle 1.48095e-014 9.54166e-015
lhumerus -87.1172 31.0849 4.30962
lradius 10.0266
lwrist -70.9243
lhand -7.87892 -12.8762
lfingers 7.12502
lthumb 18.0253 16.3085
rfemur -2.35564 -2.05706 16.3845
rtibia 40.8498
rfoot 8.2877 16.6857
rtoes -6.02909
lfemur -53.97 -1.84687 -24.2062
ltibia 38.1069
lfoot -4.38825 -5.04746
ltoes -10.4638
